<svg width="60" height="60" viewBox="0 0 60 60" fill="none" xmlns="http://www.w3.org/2000/svg">
<circle cx="30" cy="30" r="30" fill="#00C728"/>
<path d="M22 20.5L30 12M30 12L38 20.5M30 12V28.5" stroke="white" stroke-width="2" stroke-linecap="round" stroke-linejoin="round"/>
<path d="M25.732 37.66V38.956H23.2V46.312H21.664V38.956H19.12V37.66H25.732ZM30.0817 37.528C30.5697 37.528 31.0337 37.6 31.4737 37.744C31.9217 37.88 32.3137 38.1 32.6497 38.404C32.9857 38.7 33.2497 39.084 33.4417 39.556C33.6417 40.028 33.7417 40.6 33.7417 41.272V42.7C33.7417 43.38 33.6417 43.96 33.4417 44.44C33.2497 44.912 32.9857 45.296 32.6497 45.592C32.3217 45.888 31.9337 46.104 31.4857 46.24C31.0457 46.376 30.5777 46.444 30.0817 46.444C29.5857 46.444 29.1137 46.376 28.6657 46.24C28.2257 46.104 27.8377 45.888 27.5017 45.592C27.1737 45.296 26.9097 44.912 26.7097 44.44C26.5177 43.96 26.4217 43.38 26.4217 42.7V41.272C26.4217 40.6 26.5177 40.028 26.7097 39.556C26.9097 39.084 27.1777 38.7 27.5137 38.404C27.8497 38.1 28.2377 37.88 28.6777 37.744C29.1257 37.6 29.5937 37.528 30.0817 37.528ZM30.0817 45.04C30.3777 45.04 30.6537 45.004 30.9097 44.932C31.1657 44.852 31.3897 44.716 31.5817 44.524C31.7737 44.332 31.9217 44.072 32.0257 43.744C32.1377 43.416 32.1937 43.004 32.1937 42.508V41.464C32.1937 40.968 32.1377 40.556 32.0257 40.228C31.9217 39.9 31.7737 39.64 31.5817 39.448C31.3897 39.256 31.1657 39.124 30.9097 39.052C30.6537 38.972 30.3777 38.932 30.0817 38.932C29.7937 38.932 29.5217 38.972 29.2657 39.052C29.0097 39.124 28.7857 39.256 28.5937 39.448C28.4017 39.64 28.2497 39.9 28.1377 40.228C28.0257 40.556 27.9697 40.968 27.9697 41.464V42.508C27.9697 43.004 28.0257 43.416 28.1377 43.744C28.2497 44.072 28.4017 44.332 28.5937 44.524C28.7857 44.716 29.0097 44.852 29.2657 44.932C29.5217 45.004 29.7937 45.04 30.0817 45.04ZM35.3704 37.66H38.6344C39.1544 37.66 39.5984 37.724 39.9664 37.852C40.3424 37.972 40.6504 38.144 40.8904 38.368C41.1304 38.584 41.3064 38.844 41.4184 39.148C41.5384 39.452 41.5984 39.78 41.5984 40.132V40.384C41.5984 40.736 41.5384 41.072 41.4184 41.392C41.2984 41.704 41.1144 41.98 40.8664 42.22C40.6184 42.452 40.3104 42.64 39.9424 42.784C39.5744 42.92 39.1384 42.988 38.6344 42.988H36.9064V46.312H35.3704V37.66ZM36.9064 38.944V41.692H38.4304C38.9344 41.692 39.3304 41.596 39.6184 41.404C39.9064 41.212 40.0504 40.864 40.0504 40.36V40.144C40.0504 39.904 40.0144 39.708 39.9424 39.556C39.8704 39.404 39.7664 39.284 39.6304 39.196C39.5024 39.1 39.3464 39.036 39.1624 39.004C38.9784 38.964 38.7784 38.944 38.5624 38.944H36.9064Z" fill="white"/>
</svg>
